<?xml version="1.0" encoding="UTF-8" standalone="no"?>
<!-- Created with Inkscape (http://www.inkscape.org/) -->

<svg
   version="1.1"
   id="svg1"
   width="546.1333"
   height="546.1333"
   viewBox="0 0 546.1333 546.1333"
   sodipodi:docname="github.svg"
   inkscape:version="1.3.2 (1:1.3.2+202311252150+091e20ef0f)"
   xmlns:inkscape="http://www.inkscape.org/namespaces/inkscape"
   xmlns:sodipodi="http://sodipodi.sourceforge.net/DTD/sodipodi-0.dtd"
   xmlns="http://www.w3.org/2000/svg"
   xmlns:svg="http://www.w3.org/2000/svg">
  <defs
     id="defs1" />
  <sodipodi:namedview
     id="namedview1"
     pagecolor="#ffffff"
     bordercolor="#000000"
     borderopacity="0.25"
     inkscape:showpageshadow="2"
     inkscape:pageopacity="0.0"
     inkscape:pagecheckerboard="0"
     inkscape:deskcolor="#d1d1d1"
     inkscape:zoom="1.4941407"
     inkscape:cx="273.06665"
     inkscape:cy="273.06665"
     inkscape:window-width="1920"
     inkscape:window-height="1016"
     inkscape:window-x="0"
     inkscape:window-y="0"
     inkscape:window-maximized="1"
     inkscape:current-layer="g1" />
  <g
     inkscape:groupmode="layer"
     inkscape:label="Image"
     id="g1">
    <path
       style="fill:#000000;stroke-width:0.918823"
       d="m 198.98453,510.41726 -2.96795,0.49088 -2.96797,-0.76004 -2.96796,-0.76003 -7.91455,-2.95205 -7.91458,-2.95204 -9.39853,-4.34964 -9.39855,-4.34962 -8.50325,-4.8247 -8.50325,-4.8247 -7.32586,-4.86902 -7.32587,-4.86901 -8.90389,-6.96258 -8.90387,-6.96256 -10.746748,-10.38795 -10.746743,-10.38795 -7.962453,-9.7092 -7.962463,-9.7092 -7.81975,-11.65103 -7.819752,-11.65104 -6.794486,-13.59287 -6.794486,-13.59289 -3.461357,-9.22374 -3.461346,-9.22372 -2.508075,-8.25283 -2.508075,-8.25281 -2.445905,-11.65104 -2.445905,-11.65104 -1.031377,-8.73827 -1.031366,-8.73828 -0.641821,-13.59288 -0.641831,-13.59287 1.147553,-13.38839 1.147552,-13.38838 1.926948,-10.88461 1.926949,-10.88462 3.463953,-12.39991 3.463944,-12.39991 4.450252,-11.16981 4.450244,-11.16981 6.650791,-12.83976 6.650801,-12.83977 7.646819,-11.16558 7.64682,-11.16557 5.556023,-6.79644 5.556022,-6.79644 8.395682,-8.9398 8.395692,-8.939794 11.618974,-9.554795 11.61899,-9.554794 11.84671,-7.769455 11.84671,-7.769455 12.86115,-6.415936 12.86116,-6.415935 10.38786,-4.062859 10.38786,-4.06286 11.47528,-3.243088 11.47528,-3.243089 10.78442,-1.944419 10.78442,-1.944417 9.39855,-1.160588 9.39854,-1.160587 19.29173,0.06976 19.29175,0.06976 10.96396,1.469023 10.96397,1.469021 10.29705,2.09407 10.29703,2.09407 9.66891,2.81899 9.66891,2.818989 10.12686,3.959116 10.12687,3.959115 12.86116,6.408638 12.86117,6.40864 12.86116,8.504555 12.86116,8.504556 11.53219,9.737598 11.53219,9.737598 7.51356,8.100342 7.51358,8.10034 5.51046,6.72529 5.51049,6.72529 7.64681,11.16557 7.64683,11.16558 6.6508,12.83977 6.65079,12.83976 4.45024,11.16981 4.45025,11.16981 3.46395,12.39991 3.46395,12.39991 1.92695,10.88462 1.92694,10.88461 1.14756,13.38838 1.14755,13.38839 -0.64183,13.59287 -0.64182,13.59288 -1.03138,8.73827 -1.03136,8.73828 -2.46165,11.65104 -2.46164,11.65104 -2.39149,8.09754 -2.39148,8.09755 -3.54323,9.37901 -3.54325,9.379 -6.81671,13.59289 -6.81669,13.59287 -7.79041,11.65104 -7.79042,11.65103 -7.99094,9.7092 -7.99092,9.7092 -11.23902,10.88613 -11.23901,10.88613 -8.40922,6.45314 -8.40923,6.45314 -8.40921,5.53664 -8.40922,5.53663 -8.0025,4.48844 -8.00249,4.48843 -8.81595,4.03054 -8.81594,4.03056 -7.91457,2.94285 -7.91457,2.94285 -3.46261,0.82028 -3.46261,0.82028 -3.52706,-0.92219 -3.52705,-0.92219 -2.40887,-2.51464 -2.40887,-2.51465 -0.5705,-44.34314 -0.57051,-44.34314 -2.17789,-7.12523 -2.17789,-7.12525 -2.4802,-4.80338 -2.4802,-4.8034 -3.53427,-3.83925 -3.53427,-3.83926 1.34297,-0.42221 1.34296,-0.42221 8.40922,-1.08248 8.40922,-1.0825 10.20449,-2.45568 10.2045,-2.45568 6.61395,-2.4275 6.61395,-2.42749 8.15521,-4.24001 8.1552,-4.24002 5.82507,-4.39892 5.82507,-4.39892 6.16348,-6.58573 6.16349,-6.5857 4.34893,-7.27339 4.34895,-7.27339 3.00248,-7.07814 3.00248,-7.07814 1.9605,-7.73055 1.96048,-7.73057 1.44245,-9.95827 1.44246,-9.95826 0.0181,-13.22296 0.0181,-13.22297 -1.47635,-8.30854 -1.47635,-8.30855 -3.0675,-8.31979 -3.0675,-8.31979 -5.37137,-8.39645 -5.37135,-8.39644 -2.88585,-3.22569 -2.88585,-3.22567 1.96752,-6.58709 1.96751,-6.58711 0.5705,-10.68011 0.5705,-10.68013 -1.12593,-7.28189 -1.12592,-7.2819 -2.59114,-8.41136 -2.59114,-8.41136 -3.25859,-0.59994 -3.25858,-0.59996 -6.29937,0.98763 -6.29937,0.9876 -6.38887,2.02399 -6.38887,2.02398 -10.88252,5.20886 -10.88252,5.20887 -8.14097,5.04162 -8.14095,5.04162 -8.18282,-1.99077 -8.18283,-1.99078 -10.88252,-1.77442 -10.8825,-1.77443 h -25.22767 -25.22767 l -10.88252,1.77443 -10.88252,1.77442 -8.12475,1.97649 -8.12476,1.97648 -9.74701,-5.91195 -9.74701,-5.91195 -9.33453,-4.31348 -9.33455,-4.31349 -6.38887,-2.03475 -6.38887,-2.03474 -6.47229,-1.01725 -6.47228,-1.01727 -3.06442,0.56163 -3.06443,0.56163 -2.62415,8.47932 -2.62416,8.47933 -1.10063,7.76736 -1.10065,7.76736 0.53956,10.19466 0.53957,10.19465 2.03285,6.31098 2.03285,6.31098 -1.99508,2.42729 -1.99506,2.42731 -5.42239,7.93091 -5.4224,7.93093 -3.02489,6.97618 -3.02489,6.97617 -2.01377,7.42406 -2.01374,7.42406 -0.52177,15.23934 -0.52176,15.23935 1.19633,9.51911 1.19635,9.5191 1.88904,8.25281 1.88904,8.25282 2.46928,6.55597 2.46928,6.55596 2.52216,4.88465 2.52215,4.88466 3.32614,5.06502 3.32615,5.06501 5.64543,6.0878 5.64542,6.08781 5.84156,4.41138 5.84157,4.41137 8.16735,4.26398 8.16735,4.26398 6.81561,2.51767 6.81561,2.51768 9.49603,2.31569 9.49602,2.31569 7.91457,1.10894 7.91457,1.10894 2.24082,0.52095 2.24083,0.52096 -3.37324,3.66433 -3.37322,3.66431 -3.04636,6.26434 -3.04633,6.26431 -1.40432,5.90775 -1.4043,5.90774 -0.63968,1.01579 -0.63971,1.0158 -7.9184,2.45491 -7.91841,2.45488 -8.11855,0.58945 -8.11854,0.58944 -6.68675,-1.546 -6.68675,-1.54601 -4.73504,-2.35481 -4.73505,-2.3548 -5.24068,-4.62418 -5.24068,-4.62417 -5.72924,-8.36215 -5.72926,-8.36214 -4.31991,-4.36153 -4.31993,-4.36152 -4.45194,-2.9829 -4.45194,-2.98287 -5.93592,-2.17268 -5.93592,-2.17266 -5.441261,0.005 -5.441264,0.005 -2.720627,1.03054 -2.720627,1.03053 v 2.26087 2.26086 l 3.215283,2.96653 3.215294,2.96652 5.441265,3.87376 5.441247,3.87378 3.75829,4.08559 3.75829,4.0856 3.31221,5.08149 3.3122,5.0815 6.1376,12.53794 6.13762,12.53795 6.71652,6.59161 6.71654,6.5916 8.27098,3.84977 8.271,3.84976 8.40501,1.63321 8.40502,1.63321 11.87606,-0.60856 11.87604,-0.60858 3.9295,-0.93043 3.92951,-0.93044 0.23896,0.23451 0.23897,0.23452 0.12679,23.04854 0.12679,23.04855 -1.58841,2.37914 -1.58841,2.37913 -2.21219,1.3746 -2.21219,1.3746 z"
       id="path1" />
  </g>
</svg>
